<mxfile host="app.diagrams.net" modified="2023-04-14T07:51:22.316Z" agent="Mozilla/5.0 (Windows NT 10.0; Win64; x64) AppleWebKit/537.36 (KHTML, like Gecko) Chrome/112.0.0.0 Safari/537.36 Edg/112.0.1722.39" etag="rzaT-CmYjMtiw9gtSyyU" version="21.1.7" type="device">
  <diagram name="Page-1" id="b5b7bab2-c9e2-2cf4-8b2a-24fd1a2a6d21">
    <mxGraphModel dx="-115" dy="726" grid="1" gridSize="10" guides="1" tooltips="1" connect="1" arrows="1" fold="1" page="1" pageScale="1" pageWidth="827" pageHeight="1169" background="none" math="0" shadow="0">
      <root>
        <mxCell id="0" />
        <mxCell id="1" parent="0" />
        <mxCell id="6e0c8c40b5770093-30" value="" style="group" parent="1" vertex="1" connectable="0">
          <mxGeometry x="1045.5" y="294.5" width="825.5" height="1255.5" as="geometry" />
        </mxCell>
        <mxCell id="Eq8LewquDsXGNk-BHbxZ-2" value="" style="rounded=0;whiteSpace=wrap;html=1;" parent="1" vertex="1">
          <mxGeometry x="1520" y="470" width="460" height="800" as="geometry" />
        </mxCell>
        <mxCell id="Eq8LewquDsXGNk-BHbxZ-3" value="&lt;div style=&quot;font-size: 21px; text-align: start;&quot; data-hash=&quot;2194b947035ba63533c63b8fb896c702&quot; data-version=&quot;3.0.0&quot;&gt;&lt;/div&gt;&lt;div style=&quot;font-size: 21px; text-align: start;&quot;&gt;&lt;div class=&quot;document&quot; style=&quot;font-size: 21px;&quot;&gt;&lt;div class=&quot;section&quot; style=&quot;font-size: 21px;&quot;&gt;&lt;p style=&quot;margin: 3pt 0pt; font-size: 21px; line-height: 16px;&quot; class=&quot;paragraph text-align-type-left&quot;&gt;互联网购票乘车系统&lt;/p&gt;&lt;/div&gt;&lt;/div&gt;&lt;/div&gt;" style="text;html=1;strokeColor=none;fillColor=none;align=center;verticalAlign=middle;whiteSpace=wrap;rounded=0;fontSize=21;fontFamily=Helvetica;" parent="1" vertex="1">
          <mxGeometry x="1610" y="470" width="280" height="70" as="geometry" />
        </mxCell>
        <mxCell id="Eq8LewquDsXGNk-BHbxZ-5" value="&lt;font style=&quot;font-size: 20px;&quot;&gt;UC1 &lt;br&gt;个人账户管理&lt;/font&gt;" style="ellipse;whiteSpace=wrap;html=1;" parent="1" vertex="1">
          <mxGeometry x="1540" y="770" width="140" height="100" as="geometry" />
        </mxCell>
        <mxCell id="Eq8LewquDsXGNk-BHbxZ-7" value="&lt;font style=&quot;font-size: 20px;&quot;&gt;UC3&lt;br&gt;浏览车票详细信息&lt;br&gt;&lt;/font&gt;" style="ellipse;whiteSpace=wrap;html=1;" parent="1" vertex="1">
          <mxGeometry x="1580" y="535" width="140" height="100" as="geometry" />
        </mxCell>
        <mxCell id="Eq8LewquDsXGNk-BHbxZ-8" value="&lt;font style=&quot;font-size: 20px;&quot;&gt;UC4&lt;br&gt;购买车票&lt;br&gt;&lt;/font&gt;" style="ellipse;whiteSpace=wrap;html=1;" parent="1" vertex="1">
          <mxGeometry x="1770" y="600" width="140" height="100" as="geometry" />
        </mxCell>
        <mxCell id="Eq8LewquDsXGNk-BHbxZ-9" value="&lt;font style=&quot;font-size: 20px;&quot;&gt;UC6&lt;br&gt;车票信息管理&lt;/font&gt;" style="ellipse;whiteSpace=wrap;html=1;" parent="1" vertex="1">
          <mxGeometry x="1590" y="1110" width="140" height="100" as="geometry" />
        </mxCell>
        <mxCell id="Eq8LewquDsXGNk-BHbxZ-10" value="&lt;span style=&quot;font-size: 20px;&quot;&gt;UC5&lt;br&gt;铁路信息管理&lt;br&gt;&lt;/span&gt;" style="ellipse;whiteSpace=wrap;html=1;" parent="1" vertex="1">
          <mxGeometry x="1600" y="970" width="140" height="100" as="geometry" />
        </mxCell>
        <mxCell id="Eq8LewquDsXGNk-BHbxZ-11" value="客户" style="shape=umlActor;verticalLabelPosition=bottom;verticalAlign=top;html=1;fontSize=20;" parent="1" vertex="1">
          <mxGeometry x="1110" y="580" width="70" height="140" as="geometry" />
        </mxCell>
        <mxCell id="Eq8LewquDsXGNk-BHbxZ-13" value="铁路管理员" style="shape=umlActor;verticalLabelPosition=bottom;verticalAlign=top;html=1;fontSize=20;" parent="1" vertex="1">
          <mxGeometry x="1110" y="920" width="70" height="140" as="geometry" />
        </mxCell>
        <mxCell id="Eq8LewquDsXGNk-BHbxZ-17" value="" style="endArrow=none;html=1;rounded=0;exitX=0.5;exitY=0.5;exitDx=0;exitDy=0;exitPerimeter=0;" parent="1" source="Eq8LewquDsXGNk-BHbxZ-11" target="Eq8LewquDsXGNk-BHbxZ-7" edge="1">
          <mxGeometry width="50" height="50" relative="1" as="geometry">
            <mxPoint x="1650" y="940" as="sourcePoint" />
            <mxPoint x="1700" y="890" as="targetPoint" />
          </mxGeometry>
        </mxCell>
        <mxCell id="Eq8LewquDsXGNk-BHbxZ-18" value="" style="endArrow=none;html=1;rounded=0;exitX=0.5;exitY=0.5;exitDx=0;exitDy=0;exitPerimeter=0;entryX=0;entryY=0.5;entryDx=0;entryDy=0;" parent="1" source="Eq8LewquDsXGNk-BHbxZ-11" target="Eq8LewquDsXGNk-BHbxZ-8" edge="1">
          <mxGeometry width="50" height="50" relative="1" as="geometry">
            <mxPoint x="1650" y="940" as="sourcePoint" />
            <mxPoint x="1700" y="890" as="targetPoint" />
          </mxGeometry>
        </mxCell>
        <mxCell id="Eq8LewquDsXGNk-BHbxZ-19" value="" style="endArrow=none;html=1;rounded=0;exitX=0.5;exitY=0.5;exitDx=0;exitDy=0;exitPerimeter=0;entryX=0;entryY=0.5;entryDx=0;entryDy=0;" parent="1" source="Eq8LewquDsXGNk-BHbxZ-13" target="Eq8LewquDsXGNk-BHbxZ-10" edge="1">
          <mxGeometry width="50" height="50" relative="1" as="geometry">
            <mxPoint x="1650" y="940" as="sourcePoint" />
            <mxPoint x="1700" y="890" as="targetPoint" />
          </mxGeometry>
        </mxCell>
        <mxCell id="Eq8LewquDsXGNk-BHbxZ-20" value="" style="endArrow=none;html=1;rounded=0;exitX=0.5;exitY=0.5;exitDx=0;exitDy=0;exitPerimeter=0;entryX=0;entryY=0.5;entryDx=0;entryDy=0;" parent="1" source="Eq8LewquDsXGNk-BHbxZ-13" target="Eq8LewquDsXGNk-BHbxZ-9" edge="1">
          <mxGeometry width="50" height="50" relative="1" as="geometry">
            <mxPoint x="1650" y="940" as="sourcePoint" />
            <mxPoint x="1450" y="1100" as="targetPoint" />
          </mxGeometry>
        </mxCell>
        <mxCell id="JNE7o5r0b7NeNdW_04pl-3" value="Extends" style="endArrow=block;endSize=16;endFill=0;html=1;rounded=0;exitX=0.5;exitY=0.5;exitDx=0;exitDy=0;exitPerimeter=0;entryX=0.5;entryY=0.5;entryDx=0;entryDy=0;entryPerimeter=0;" parent="1" source="Eq8LewquDsXGNk-BHbxZ-11" target="JNE7o5r0b7NeNdW_04pl-5" edge="1">
          <mxGeometry width="160" relative="1" as="geometry">
            <mxPoint x="1230" y="790" as="sourcePoint" />
            <mxPoint x="1270" y="830" as="targetPoint" />
          </mxGeometry>
        </mxCell>
        <mxCell id="JNE7o5r0b7NeNdW_04pl-5" value="用户" style="shape=umlActor;verticalLabelPosition=bottom;verticalAlign=top;html=1;fontSize=20;" parent="1" vertex="1">
          <mxGeometry x="1355" y="750" width="70" height="140" as="geometry" />
        </mxCell>
        <mxCell id="JNE7o5r0b7NeNdW_04pl-7" value="Extends" style="endArrow=block;endSize=16;endFill=0;html=1;rounded=0;exitX=0.5;exitY=0.5;exitDx=0;exitDy=0;exitPerimeter=0;entryX=0.5;entryY=0.5;entryDx=0;entryDy=0;entryPerimeter=0;" parent="1" source="Eq8LewquDsXGNk-BHbxZ-13" target="JNE7o5r0b7NeNdW_04pl-5" edge="1">
          <mxGeometry width="160" relative="1" as="geometry">
            <mxPoint x="1600" y="990" as="sourcePoint" />
            <mxPoint x="1760" y="990" as="targetPoint" />
          </mxGeometry>
        </mxCell>
        <mxCell id="JNE7o5r0b7NeNdW_04pl-13" value="" style="endArrow=none;html=1;rounded=0;exitX=0.5;exitY=0.5;exitDx=0;exitDy=0;exitPerimeter=0;" parent="1" source="JNE7o5r0b7NeNdW_04pl-5" target="Eq8LewquDsXGNk-BHbxZ-5" edge="1">
          <mxGeometry width="50" height="50" relative="1" as="geometry">
            <mxPoint x="1460" y="850" as="sourcePoint" />
            <mxPoint x="1750" y="970" as="targetPoint" />
          </mxGeometry>
        </mxCell>
        <mxCell id="yB-gRibkAk37kqhhevJe-2" value="&lt;font style=&quot;font-size: 20px;&quot;&gt;UC2&lt;br&gt;信用积分查询&lt;br&gt;&lt;/font&gt;" style="ellipse;whiteSpace=wrap;html=1;" parent="1" vertex="1">
          <mxGeometry x="1790" y="770" width="140" height="100" as="geometry" />
        </mxCell>
        <mxCell id="yB-gRibkAk37kqhhevJe-3" value="" style="endArrow=none;html=1;rounded=0;entryX=0.5;entryY=0;entryDx=0;entryDy=0;exitX=0.5;exitY=0.5;exitDx=0;exitDy=0;exitPerimeter=0;" parent="1" source="Eq8LewquDsXGNk-BHbxZ-11" target="yB-gRibkAk37kqhhevJe-2" edge="1">
          <mxGeometry width="50" height="50" relative="1" as="geometry">
            <mxPoint x="1200" y="650" as="sourcePoint" />
            <mxPoint x="1870" y="800" as="targetPoint" />
          </mxGeometry>
        </mxCell>
        <mxCell id="yB-gRibkAk37kqhhevJe-5" value="Use" style="endArrow=open;endSize=12;dashed=1;html=1;rounded=0;exitX=0.5;exitY=0;exitDx=0;exitDy=0;entryX=1;entryY=0.5;entryDx=0;entryDy=0;" parent="1" source="Eq8LewquDsXGNk-BHbxZ-8" target="Eq8LewquDsXGNk-BHbxZ-7" edge="1">
          <mxGeometry width="160" relative="1" as="geometry">
            <mxPoint x="1650" y="800" as="sourcePoint" />
            <mxPoint x="1810" y="800" as="targetPoint" />
          </mxGeometry>
        </mxCell>
        <mxCell id="BXwEiIUTSuhelwiu4pKU-1" value="Use" style="endArrow=open;endSize=12;dashed=1;html=1;rounded=0;exitX=0;exitY=0.5;exitDx=0;exitDy=0;entryX=1;entryY=0.5;entryDx=0;entryDy=0;" parent="1" source="yB-gRibkAk37kqhhevJe-2" target="Eq8LewquDsXGNk-BHbxZ-5" edge="1">
          <mxGeometry width="160" relative="1" as="geometry">
            <mxPoint x="1490" y="810" as="sourcePoint" />
            <mxPoint x="1650" y="810" as="targetPoint" />
          </mxGeometry>
        </mxCell>
      </root>
    </mxGraphModel>
  </diagram>
</mxfile>
